{"title":"Evil Dead 2013) 720p Blu-Ray x264 [Dual-Audio]English + Hindi.AA","uid":8831702,"size":926881263,"categoryP":"video","categoryS":"hd___movies","magnet":"?xt=urn:btih:c0f4d3d4803a318b7558abe9152f416102e5f725&amp;dn=Evil+Dead+2013%29+720p+Blu-Ray+x264+%5BDual-Audio%5DEnglish+%2B+Hindi.AA&amp;tr=udp%3A%2F%2Ftracker.openbittorrent.com%3A80&amp;tr=udp%3A%2F%2Fopen.demonii.com%3A1337&amp;tr=udp%3A%2F%2Ftracker.coppersurfer.tk%3A6969&amp;tr=udp%3A%2F%2Fexodus.desync.com%3A6969","seeders":15,"leechers":1,"uploader":"manucs2004","files":-1,"time":1376957253,"description":"IMDB Rating: 6.5/10.0\n\nGENRE: Horror\n\n\n\nGeneral\nUnique ID : 223579392077449420003510736548852925717 (0xA833D319F7BA276BB6428144C5DC0515)\nComplete name : Evil Dead (2013) 720p Blu-Ray x264 [Dual-Audio] [English+Hindi] - Mafiaking.mkv\nFormat : Matroska\nFormat version : Version 2\nFile size : 874 MiB\nDuration : 1h 31mn\nOverall bit rate : 1 339 Kbps\nMovie name : Evil Dead 2013) 720p Blu-Ray x264 [Dual-Audio] [English+Hindi] - Mafiaking\nEncoded date : UTC 2013-08-16 09:52:16\nWriting application : mkvmerge v5.7.0 ('The Whirlwind') built on Jul 8 2012 20:08:51\nWriting library : libebml v1.2.3 + libmatroska v1.3.0\n\n\n\n\n\nvlcfile.png\n\n\nVideo\nID : 1\nFormat : AVC\nFormat/Info : Advanced Video Codec\nFormat profile : &lt;a class=&quot;__cf_email__&quot; href=&quot;/cdn-cgi/l/email-protection&quot; data-cfemail=&quot;bcf4d5dbd4fcf088928d&quot;&gt;[email&amp;#160;protected]&lt;/a&gt;&lt;script cf-hash='f9e31' type=&quot;text/javascript&quot;&gt;\n/* &lt;![CDATA[ */!function(){try{var t=&quot;currentScript&quot;in document?document.currentScript:function(){for(var t=document.getElementsByTagName(&quot;script&quot;),e=t.length;e--;)if(t[e].getAttribute(&quot;cf-hash&quot;))return t[e]}();if(t&amp;&amp;t.previousSibling){var e,r,n,i,c=t.previousSibling,a=c.getAttribute(&quot;data-cfemail&quot;);if(a){for(e=&quot;&quot;,r=parseInt(a.substr(0,2),16),n=2;a.length-n;n+=2)i=parseInt(a.substr(n,2),16)^r,e+=String.fromCharCode(i);e=document.createTextNode(e),c.parentNode.replaceChild(e,c)}}}catch(u){}}();/* ]]&gt; */&lt;/script&gt;\nFormat settings, CABAC : Yes\nFormat settings, ReFrames : 5 frames\nMuxing mode : Header stripping\nCodec ID : V_MPEG4/ISO/AVC\nDuration : 1h 31mn\nBit rate : 1 050 Kbps\nWidth : 1 280 pixels\nHeight : 536 pixels\nDisplay aspect ratio : 2.40:1\nFrame rate mode : Constant\nFrame rate : 23.976 fps\nColor space : YUV\nChroma subsampling : 4:2:0\nBit depth : 8 bits\nScan type : Progressive\nBits/(Pixel*Frame) : 0.064\nStream size : 669 MiB (77%)\nTitle : Mafiaking\nWriting library : x264 core 132 r2 76a5c3a\n\nLanguage : English\nDefault : Yes\nForced : N0\n\n\nmusicfile1.png\n\n\nAudio #1\nID : 2\nFormat : AC-3\nFormat/Info : Audio Coding 3\nMode extension : CM (complete main)\nFormat settings, Endianness : Big\nMuxing mode : Header stripping\nCodec ID : A_AC3\nDuration : 1h 31mn\nBit rate mode : Constant\nBit rate : 160 Kbps\nChannel(s) : 2 channels\nChannel positions : Front: L R\nSampling rate : 48.0 KHz\nBit depth : 16 bits\nCompression mode : Lossy\nStream size : 104 MiB (12%)\nTitle : Mafiaking\nLanguage : Hindi\nDefault : Yes\nForced : No\n\n\nmusicfile1.png\n\n\nAudio #2\nID : 3\nFormat : AC-3\nFormat/Info : Audio Coding 3\nMode extension : CM (complete main)\nFormat settings, Endianness : Big\nMuxing mode : Header stripping\nCodec ID : A_AC3\nDuration : 1h 31mn\nBit rate mode : Constant\nBit rate : 128 Kbps\nChannel(s) : 2 channels\nChannel positions : Front: L R\nSampling rate : 48.0 KHz\nBit depth : 16 bits\nCompression mode : Lossy\nStream size : 83.6 MiB (10%)\nTitle : Mafiaking\nLanguage : English\nDefault : No\nForced : No\n\n\n\n\n\nSAMPLE WITH IN TORRENT (IN DUAL AUDIO)\n\n\nscreensx.png\n\n\n\n18222445f053057ebf38011833556c60a81a5fae.jpg\n\n18222444000c3df66698ea96eb1d2a4e7b4de019.jpg\n\n182224437e57cd311432f0bdb59e4f3f33398231.jpg\n\n182224422e145b25d84ad404b5b07b95cc9801c7.jpg\n\n182224418e06911533bf9e977bf5c736dd810009.jpg\n\n18222440a841405a11f95ab57e0f0fa9bbef93d1.jpg\n\n18222439df4c8169956ba14e03668168868b5995.jpg\n\n18222438dda08e0d71962a3b1814823d6ef59a46.jpg\n\n182224375eb70c4fbda8007ccdfe0d80852d7a4b.jpg\n\n182224366f12baf5cfd750970b7a22a194c81c0f.jpg\n\n18222435c4137852786fc81414d607a5b52d8440.jpg\n\n18222434e42f73c85333c7908a60423cf8061cac.jpg\n\n182224331aafcd3a5aa873181ef875df23624d7d.jpg\n\n\n\n\nRespects To ::- SaM,oziman,Taker And All The Staff's Of Extratorrent And Team EXD!!!\n\nGreetz To ::- K@rtik | Sonic | @King | Abdullah | Imkhan | Sophie | Rohit And All Other Members of Team EXD!!\n\n","torrent":{"xt":"urn:btih:c0f4d3d4803a318b7558abe9152f416102e5f725","amp;dn":"Evil+Dead+2013%29+720p+Blu-Ray+x264+%5BDual-Audio%5DEnglish+%2B+Hindi.AA","amp;tr":["udp%3A%2F%2Ftracker.openbittorrent.com%3A80","udp%3A%2F%2Fopen.demonii.com%3A1337","udp%3A%2F%2Ftracker.coppersurfer.tk%3A6969","udp%3A%2F%2Fexodus.desync.com%3A6969"],"infoHash":"c0f4d3d4803a318b7558abe9152f416102e5f725","infoHashBuffer":{"type":"Buffer","data":[192,244,211,212,128,58,49,139,117,88,171,233,21,47,65,97,2,229,247,37]},"announce":[],"urlList":[]}}